<svg xmlns="http://www.w3.org/2000/svg" style="display:none">
<!-- 유소년 영양 라인 아이콘. 사용: <span class="sec-ic"><svg><use href="/assets/img/nutrition-icons.svg#carb"/></svg></span>
     stroke=currentColor · viewBox 0 0 48 48 통일 -->

<symbol id="carb" viewBox="0 0 48 48">
  <path d="M8 26 h32 a16 13 0 0 1 -32 0 Z"/>
  <path d="M11 26 q13 -9 26 0"/>
  <path d="M19 13 q2.5 -3 0 -6"/>
  <path d="M27 13 q2.5 -3 0 -6"/>
</symbol>

<symbol id="protein" viewBox="0 0 48 48">
  <path d="M24 9 C31 9 35 21 35 29 a11 12 0 0 1 -22 0 C13 21 17 9 24 9 Z"/>
  <path d="M20 20 q3 -3 7 0"/>
</symbol>

<symbol id="fat" viewBox="0 0 48 48">
  <path d="M24 8 c8 0 12 9 12 17 c0 9 -6 15 -12 15 s-12 -6 -12 -15 c0 -8 4 -17 12 -17 Z"/>
  <circle cx="24" cy="29" r="5.5"/>
</symbol>

<symbol id="water" viewBox="0 0 48 48">
  <path d="M24 7 C24 7 11 22 11 31 a13 13 0 0 0 26 0 C37 22 24 7 24 7 Z"/>
  <path d="M18 31 a6 6 0 0 0 6 6"/>
</symbol>

<symbol id="vitamin" viewBox="0 0 48 48">
  <path d="M24 17 c-4 -4 -13 -3 -13 7 c0 9 7 17 13 17 s13 -8 13 -17 c0 -10 -9 -11 -13 -7 Z"/>
  <path d="M24 17 v-5"/>
  <path d="M24 13 c0 -3 3 -6 7 -6 c0 4 -3 6 -7 6 Z"/>
</symbol>

<symbol id="energy" viewBox="0 0 48 48">
  <path d="M27 5 L13 27 h9 l-3 16 L35 19 h-9 Z"/>
</symbol>

<symbol id="timing" viewBox="0 0 48 48">
  <circle cx="24" cy="25" r="16"/>
  <path d="M24 15 v10 l7 4"/>
  <path d="M18 6 h12"/>
</symbol>

<symbol id="snack" viewBox="0 0 48 48">
  <path d="M13 12 a22 22 0 0 0 23 23 a2.5 2.5 0 0 0 1 -3.6 a17 17 0 0 1 -20.4 -20.4 A2.5 2.5 0 0 0 13 12 Z"/>
  <path d="M13 12 q-2 -4 1 -6"/>
</symbol>

<symbol id="plate" viewBox="0 0 48 48">
  <circle cx="24" cy="24" r="16"/>
  <circle cx="24" cy="24" r="10"/>
  <path d="M24 14 v20"/>
  <path d="M24 24 h10"/>
</symbol>

<symbol id="ban" viewBox="0 0 48 48">
  <circle cx="24" cy="24" r="16"/>
  <path d="M13 13 L35 35"/>
</symbol>
</svg>
