<svg xmlns="http://www.w3.org/2000/svg" viewBox="0 0 640 400" fill="none" stroke="#ffffff" stroke-width="7" stroke-linecap="round" stroke-linejoin="round">
  <!-- 피치 라인 & 페널티 아크 -->
  <path d="M0 372 H640" stroke-width="4" opacity="0.6"/>
  <path d="M60 372 A70 70 0 0 1 200 372" stroke-width="4" opacity="0.55"/>

  <!-- 골대 (오른쪽) + 네트 -->
  <g stroke-width="6" opacity="0.85">
    <path d="M545 150 H628"/>
    <path d="M545 150 V372"/>
    <path d="M628 150 V372"/>
  </g>
  <g stroke-width="2.2" opacity="0.4">
    <path d="M545 185 H628 M545 220 H628 M545 255 H628 M545 290 H628 M545 325 H628"/>
    <path d="M560 150 V372 M580 150 V372 M600 150 V372 M615 150 V372"/>
  </g>

  <!-- 공 궤적 (슛) -->
  <path d="M300 300 Q 430 210 540 240" stroke-width="4" stroke-dasharray="3 15" opacity="0.8"/>

  <!-- 훈련용 콘 -->
  <g fill="#ffffff" stroke="none">
    <path d="M120 360 L130 332 L110 332 Z"/><ellipse cx="120" cy="361" rx="14" ry="4"/>
    <path d="M196 362 L206 334 L186 334 Z"/><ellipse cx="196" cy="363" rx="14" ry="4"/>
  </g>

  <!-- 선수 실루엣 (슛 동작) -->
  <circle cx="212" cy="112" r="19" fill="#ffffff" stroke="none"/>
  <path d="M212 133 L224 205" stroke-width="17"/>            <!-- 몸통 -->
  <path d="M224 205 L206 285" stroke-width="14"/>            <!-- 디딤발 -->
  <path d="M224 205 L268 232 L296 296" stroke-width="14"/>   <!-- 차는 다리 -->
  <path d="M218 152 L258 138" stroke-width="12"/>            <!-- 앞 팔 -->
  <path d="M218 152 L182 176" stroke-width="12"/>            <!-- 뒤 팔 -->

  <!-- 축구공 -->
  <circle cx="306" cy="302" r="18" fill="#ffffff" stroke="none"/>
  <path d="M306 291 l10 7 -4 12 h-12 l-4 -12 z" fill="none" stroke="#cbd5cb" stroke-width="2.5"/>
</svg>
